<svg id="Capa_1" data-name="Capa 1" xmlns="http://www.w3.org/2000/svg" width="200" height="55.47" viewBox="0 0 200 55.47"><defs><style>.cls-1,.cls-2{fill:#fff;}.cls-1{stroke:#fff;stroke-miterlimit:10;}</style></defs><title>logo_equitas_web_blanco_bold</title><path class="cls-1" d="M66.62,47.47a4,4,0,0,1,1.59-1.65,4.63,4.63,0,0,1,2.3-.57,4.48,4.48,0,0,1,2.89.9,3.69,3.69,0,0,1,1.36,2.36H74.42a3.23,3.23,0,0,0-1.29-2.16,4.29,4.29,0,0,0-2.62-.79,4.36,4.36,0,0,0-2,.49A3.68,3.68,0,0,0,67,47.54a5.68,5.68,0,0,0,0,4.94A3.68,3.68,0,0,0,68.46,54a4.36,4.36,0,0,0,2,.49,4.29,4.29,0,0,0,2.62-.79,3.23,3.23,0,0,0,1.29-2.16h0.34a3.69,3.69,0,0,1-1.36,2.36,4.48,4.48,0,0,1-2.89.9,4.63,4.63,0,0,1-2.3-.57,4,4,0,0,1-1.59-1.65,5.9,5.9,0,0,1,0-5.08"/><path class="cls-1" d="M84.18,54.18a4.12,4.12,0,0,1-1.62-1.65,5.71,5.71,0,0,1,0-5.06,4.12,4.12,0,0,1,1.62-1.65,5,5,0,0,1,4.63,0,4.07,4.07,0,0,1,1.61,1.65,5.78,5.78,0,0,1,0,5.06,4.06,4.06,0,0,1-1.61,1.65,5,5,0,0,1-4.63,0M88.55,54a3.76,3.76,0,0,0,1.53-1.48,5.52,5.52,0,0,0,0-4.94,3.77,3.77,0,0,0-1.53-1.48,4.41,4.41,0,0,0-2.06-.49,4.46,4.46,0,0,0-2.07.49,3.74,3.74,0,0,0-1.54,1.49,5.49,5.49,0,0,0,0,4.92A3.74,3.74,0,0,0,84.43,54a4.45,4.45,0,0,0,2.07.49A4.4,4.4,0,0,0,88.55,54"/><path class="cls-1" d="M105.29,46.18a4.07,4.07,0,0,1,1,3.05v5.4H106V49.2a3.86,3.86,0,0,0-.91-2.77,3.28,3.28,0,0,0-2.49-1A3.43,3.43,0,0,0,100,46.55a4.5,4.5,0,0,0-1,3.16v4.92H98.64V45.37H99v2.44a3.26,3.26,0,0,1,1.3-2,4,4,0,0,1,2.33-.68,3.69,3.69,0,0,1,2.68,1"/><path class="cls-1" d="M114.84,54.14a2.47,2.47,0,0,1-1.09-1.87h0.34a2.13,2.13,0,0,0,.92,1.6,4,4,0,0,0,2.31.57,2.9,2.9,0,0,0,1.33-.29,2.18,2.18,0,0,0,.88-0.78,1.94,1.94,0,0,0,.31-1.05,1.44,1.44,0,0,0-.35-1,2.31,2.31,0,0,0-.88-0.59,13.45,13.45,0,0,0-1.43-.45,12.59,12.59,0,0,1-1.64-.51,2.67,2.67,0,0,1-1.06-.79,2.14,2.14,0,0,1-.44-1.41,1.94,1.94,0,0,1,.38-1.15,2.64,2.64,0,0,1,1-.85,3.39,3.39,0,0,1,1.48-.32,3.46,3.46,0,0,1,2.26.7,2.59,2.59,0,0,1,.93,2h-0.34a2.34,2.34,0,0,0-.78-1.69,3,3,0,0,0-2.07-.66,3,3,0,0,0-1.3.27,2.32,2.32,0,0,0-.92.74,1.67,1.67,0,0,0-.33,1,1.81,1.81,0,0,0,.4,1.22,2.38,2.38,0,0,0,1,.69,15.41,15.41,0,0,0,1.54.48q1,0.27,1.54.5a2.46,2.46,0,0,1,1,.68,1.76,1.76,0,0,1,.39,1.19,2.17,2.17,0,0,1-.38,1.24,2.56,2.56,0,0,1-1,.88,3.29,3.29,0,0,1-1.46.32,4.39,4.39,0,0,1-2.46-.62"/><path class="cls-1" d="M135.36,45.37v9.26H135V52.12a3.23,3.23,0,0,1-1.3,2,4,4,0,0,1-2.34.69,3.69,3.69,0,0,1-2.68-1,4.06,4.06,0,0,1-1-3.05V45.37H128v5.4a3.86,3.86,0,0,0,.91,2.77,3.28,3.28,0,0,0,2.49,1A3.43,3.43,0,0,0,134,53.43a4.5,4.5,0,0,0,1-3.16V45.37h0.34Z"/><rect class="cls-1" x="143.42" y="41.94" width="0.34" height="12.69"/><path class="cls-1" d="M152.56,45.72V52.2a3.43,3.43,0,0,0,.19,1.29,1.13,1.13,0,0,0,.6.63,2.94,2.94,0,0,0,1.15.18h1v0.34h-1a2.3,2.3,0,0,1-1.72-.55,2.71,2.71,0,0,1-.52-1.89V45.72h-1.51V45.37h1.51V43h0.34v2.37h2.92v0.34h-2.92Z"/><path class="cls-1" d="M164.55,54.18a4.12,4.12,0,0,1-1.62-1.65,5.7,5.7,0,0,1,0-5.06,4.12,4.12,0,0,1,1.62-1.65,5,5,0,0,1,4.63,0,4.06,4.06,0,0,1,1.61,1.65,5.78,5.78,0,0,1,0,5.06,4.06,4.06,0,0,1-1.61,1.65,5,5,0,0,1-4.63,0m4.37-.22a3.76,3.76,0,0,0,1.53-1.48,5.52,5.52,0,0,0,0-4.94,3.77,3.77,0,0,0-1.53-1.48,4.41,4.41,0,0,0-2.06-.49,4.46,4.46,0,0,0-2.07.49,3.74,3.74,0,0,0-1.54,1.49,5.49,5.49,0,0,0,0,4.92A3.74,3.74,0,0,0,164.8,54a4.45,4.45,0,0,0,2.07.49,4.4,4.4,0,0,0,2.06-.49"/><path class="cls-1" d="M183,45.17v0.38h-0.15a3.75,3.75,0,0,0-2.48.85,3.36,3.36,0,0,0-1,2.74v5.51H179V45.37h0.34v2.25Q179.9,45.17,183,45.17Z"/><path class="cls-1" d="M190.09,47.48a4,4,0,0,1,1.59-1.65,4.74,4.74,0,0,1,2.35-.57,4.36,4.36,0,0,1,2.7.83,4,4,0,0,1,1.48,2.12V45.37h0.33v9.26h-0.33V51.81a4,4,0,0,1-1.48,2.12,4.36,4.36,0,0,1-2.7.83,4.74,4.74,0,0,1-2.35-.57,4,4,0,0,1-1.59-1.65,5.94,5.94,0,0,1,0-5.06m7.59,0.21a3.92,3.92,0,0,0-1.49-1.56,4.18,4.18,0,0,0-2.15-.56,4.39,4.39,0,0,0-2.2.53,3.62,3.62,0,0,0-1.45,1.54,5.74,5.74,0,0,0,0,4.75,3.62,3.62,0,0,0,1.45,1.53,4.38,4.38,0,0,0,2.2.53,4.18,4.18,0,0,0,2.15-.56,3.91,3.91,0,0,0,1.49-1.56,5.26,5.26,0,0,0,0-4.65"/><polygon class="cls-2" points="16.6 45.55 45.55 45.55 45.55 16.59 43.08 16.59 43.08 43.07 16.6 43.07 16.6 45.55"/><polygon class="cls-2" points="2.48 2.47 43.08 2.47 43.08 5.73 45.55 5.73 45.55 0 0 0 0 45.55 5.74 45.55 5.74 43.07 2.48 43.07 2.48 2.47"/><path class="cls-2" d="M9.93,55.47H55.47V9.93H9.93V55.47Zm2.48-43.07H53V53H12.41V12.41Z"/><path class="cls-2" d="M35.38,29.31H21.12a6.92,6.92,0,0,0,.94,3.34,5.57,5.57,0,0,0,2.24,2.09,6.54,6.54,0,0,0,3,.71,6.07,6.07,0,0,0,3.6-1,4.87,4.87,0,0,0,1.94-2.8h2.33a7.28,7.28,0,0,1-2.69,4.11,8.23,8.23,0,0,1-5.18,1.59A8.67,8.67,0,0,1,23,36.22a7.67,7.67,0,0,1-3-3.09,9.64,9.64,0,0,1-1.09-4.68A9.86,9.86,0,0,1,20,23.77a7.44,7.44,0,0,1,3-3.08,8.84,8.84,0,0,1,4.38-1.07,8.4,8.4,0,0,1,4.3,1.07,7.4,7.4,0,0,1,2.83,2.88,8.22,8.22,0,0,1,1,4q0,1.13-.06,1.73m-2.94-5.07a5.21,5.21,0,0,0-2.19-2,6.66,6.66,0,0,0-3-.69A6,6,0,0,0,23,23.08a6.29,6.29,0,0,0-1.92,4.44H33.2a6.11,6.11,0,0,0-.77-3.27"/><polygon class="cls-2" points="69.37 12.96 69.37 22.12 78.68 22.12 78.68 24.16 69.37 24.16 69.37 33.46 79.73 33.46 79.73 35.5 66.92 35.5 66.92 10.92 79.73 10.92 79.73 12.96 69.37 12.96"/><path class="cls-2" d="M104.83,40.31l-5.48-5.09a13.25,13.25,0,0,1-3.76.53,12.16,12.16,0,0,1-6.18-1.6A11.5,11.5,0,0,1,85,29.69a13.05,13.05,0,0,1-1.6-6.48A13.06,13.06,0,0,1,85,16.73a11.51,11.51,0,0,1,4.37-4.46,12.81,12.81,0,0,1,12.39,0,11.39,11.39,0,0,1,4.35,4.46,13.17,13.17,0,0,1,1.58,6.48,13.13,13.13,0,0,1-1.65,6.62,11.25,11.25,0,0,1-4.53,4.44l6.56,6h-3.3ZM87.24,28.7a9,9,0,0,0,3.44,3.63,10.19,10.19,0,0,0,9.83,0A9,9,0,0,0,104,28.7a11.5,11.5,0,0,0,1.26-5.49A11.4,11.4,0,0,0,104,17.73a9,9,0,0,0-3.44-3.62,10.19,10.19,0,0,0-9.83,0,9,9,0,0,0-3.44,3.62A11.4,11.4,0,0,0,86,23.21a11.5,11.5,0,0,0,1.26,5.49"/><path class="cls-2" d="M114.62,11V26.4q0,3.65,1.74,5.41a6.39,6.39,0,0,0,4.76,1.76,6.3,6.3,0,0,0,4.72-1.74q1.7-1.74,1.7-5.42V11H130V26.37q0,4.67-2.47,7a10,10,0,0,1-12.88,0q-2.48-2.35-2.48-7V11h2.46Z"/><rect class="cls-2" x="135.48" y="10.96" width="2.46" height="24.54"/><polygon class="cls-2" points="157.87 10.96 157.87 12.99 151.06 12.99 151.06 35.5 148.6 35.5 148.6 12.99 141.76 12.99 141.76 10.96 157.87 10.96"/><path class="cls-2" d="M176,29.67H164.82l-2.14,5.83h-2.6l9-24.22h2.77l8.92,24.22h-2.6Zm-0.74-2-4.84-13.27-4.84,13.27h9.69Z"/><path class="cls-2" d="M187.84,34.9a7,7,0,0,1-2.9-2.35,6.18,6.18,0,0,1-1.12-3.37h2.6A4.93,4.93,0,0,0,188,32.32a5.7,5.7,0,0,0,4.11,1.35,5.77,5.77,0,0,0,3.95-1.28,4.14,4.14,0,0,0,1.46-3.25,3.83,3.83,0,0,0-.81-2.54,5,5,0,0,0-2-1.44,31.06,31.06,0,0,0-3.3-1,28.81,28.81,0,0,1-3.9-1.3,6.2,6.2,0,0,1-2.46-2,5.82,5.82,0,0,1-1-3.62,6,6,0,0,1,1-3.39,6.58,6.58,0,0,1,2.77-2.34,9.55,9.55,0,0,1,4.11-.84,8.54,8.54,0,0,1,5.49,1.67,6.27,6.27,0,0,1,2.4,4.3h-2.67A4.42,4.42,0,0,0,195.47,14,6.53,6.53,0,0,0,188,14a3.89,3.89,0,0,0-1.47,3.21,3.71,3.71,0,0,0,.81,2.49,5.14,5.14,0,0,0,2,1.44,29.69,29.69,0,0,0,3.28,1.05,29.55,29.55,0,0,1,3.86,1.32,6.29,6.29,0,0,1,2.49,2A5.76,5.76,0,0,1,200,29a6.32,6.32,0,0,1-.91,3.26,6.66,6.66,0,0,1-2.7,2.49,9,9,0,0,1-4.28.95,10.17,10.17,0,0,1-4.27-.84"/></svg>